<svg width="16" height="16" viewBox="0 0 16 16" fill="none" xmlns="http://www.w3.org/2000/svg">
<path d="M11.2 1.33331H9.46667C7.33333 1.33331 6 2.66665 6 4.79998V7.49998H10.1667C10.44 7.49998 10.6667 7.72665 10.6667 7.99998C10.6667 8.27331 10.44 8.49998 10.1667 8.49998H6V11.2C6 13.3333 7.33333 14.6666 9.46667 14.6666H11.1933C13.3267 14.6666 14.66 13.3333 14.66 11.2V4.79998C14.6667 2.66665 13.3333 1.33331 11.2 1.33331Z" fill="#1e63f3"/>
<path d="M3.03996 7.49998L4.41996 6.11998C4.51996 6.01998 4.56663 5.89331 4.56663 5.76664C4.56663 5.63998 4.51996 5.50664 4.41996 5.41331C4.22663 5.21998 3.90663 5.21998 3.71329 5.41331L1.47996 7.64664C1.28663 7.83998 1.28663 8.15998 1.47996 8.35331L3.71329 10.5866C3.90663 10.78 4.22663 10.78 4.41996 10.5866C4.61329 10.3933 4.61329 10.0733 4.41996 9.87998L3.03996 8.49998H5.99996V7.49998H3.03996V7.49998Z" fill="#1e63f3"/>
</svg>
